<?xml version="1.0" encoding="UTF-8"?>
<svg version="1.1" xmlns="http://www.w3.org/2000/svg" width="512" height="512">
<path d="M0 0 C168.96 0 337.92 0 512 0 C512 168.96 512 337.92 512 512 C343.04 512 174.08 512 0 512 C0 343.04 0 174.08 0 0 Z " fill="#DB0007" transform="translate(0,0)"/>
<path d="M0 0 C27.57868077 18.18182441 40.45088004 52.19216757 50.52441406 82.14208984 C51.18712559 84.10919225 51.88011173 86.06607599 52.58203125 88.01953125 C53.33984375 90.5625 53.33984375 90.5625 53.33984375 94.5625 C53.99984375 94.5625 54.65984375 94.5625 55.33984375 94.5625 C55.48897217 93.6809021 55.48897217 93.6809021 55.64111328 92.78149414 C61.02212433 63.35858616 76.06976992 30.87028673 97.33984375 9.5625 C98.04625 8.84449219 98.75265625 8.12648438 99.48046875 7.38671875 C108.66161644 -1.38160755 118.93283444 -5.9035866 131.5703125 -5.7734375 C145.47492516 -4.53426995 155.94387685 5.22190703 164.7734375 15.28125 C211.92424976 73.62561793 219.45369652 167.17638981 223.33984375 239.5625 C223.42661377 241.06780273 223.42661377 241.06780273 223.51513672 242.60351562 C224.46677729 259.26428525 224.41673832 275.87637753 224.33984375 292.5625 C210.14984375 292.5625 195.95984375 292.5625 181.33984375 292.5625 C181.29085938 289.10523438 181.241875 285.64796875 181.19140625 282.0859375 C180.78103248 254.87480409 180.2068849 227.71644477 178.33984375 200.5625 C178.28999329 199.82974854 178.24014282 199.09699707 178.18878174 198.34204102 C175.4126639 101.22557501 175.4126639 101.22557501 135.40234375 19 C131.54969611 17.19161437 128.45961064 16.59085686 124.33984375 17.5625 C112.70078216 22.74799631 107.555048 37.47936767 103.20581055 48.57397461 C96.53163149 66.35142558 92.69814097 84.91806805 89.33984375 103.5625 C89.12972656 104.72861816 88.91960937 105.89473633 88.703125 107.09619141 C79.14600875 161.10113843 77.11549158 215.85165684 75.33984375 270.5625 C61.47984375 270.5625 47.61984375 270.5625 33.33984375 270.5625 C33.15808594 265.61507813 32.97632813 260.66765625 32.7890625 255.5703125 C32.66695213 252.35282297 32.54432383 249.13536854 32.41992188 245.91796875 C32.22440129 240.86003023 32.03035366 235.80208133 31.84790039 230.74365234 C30.75923787 200.66715427 28.5603284 170.8197316 24.90234375 140.9375 C24.79557312 140.05670776 24.68880249 139.17591553 24.57879639 138.26843262 C18.49944076 73.13309005 18.49944076 73.13309005 -13.03515625 18.5 C-17.06058071 17.06234841 -20.45659923 16.61898804 -24.66015625 17.5625 C-38.69658103 25.1904277 -44.20546764 46.22294749 -48.48046875 60.515625 C-52.69390958 75.21958105 -55.5922585 90.05060892 -58.06860352 105.13330078 C-58.68691561 108.71762256 -59.3980669 112.27679334 -60.109375 115.84375 C-62.25522541 126.95290826 -63.43347821 138.20368576 -64.72265625 149.4375 C-64.85466431 150.57843109 -64.98667236 151.71936218 -65.12268066 152.89486694 C-66.9928949 169.09955444 -68.82604203 185.26618106 -69.66015625 201.5625 C-69.6994928 202.31934082 -69.73882935 203.07618164 -69.77935791 203.85595703 C-71.30655656 233.41687248 -72.09465393 262.9678786 -72.66015625 292.5625 C-86.85015625 292.5625 -101.04015625 292.5625 -115.66015625 292.5625 C-116.08806416 251.26938701 -113.67038556 210.06198177 -107.72265625 169.1875 C-107.60136353 168.34898499 -107.4800708 167.51046997 -107.35510254 166.64654541 C-104.65196587 148.13894815 -100.93862783 129.86282894 -96.53515625 111.6875 C-96.34518066 110.90311554 -96.15520508 110.11873108 -95.95947266 109.31057739 C-90.3373623 86.28651756 -83.19093089 63.85457858 -72.66015625 42.5625 C-72.33869629 41.8926709 -72.01723633 41.2228418 -71.68603516 40.53271484 C-62.7807893 22.05421453 -49.95900821 4.06577098 -30.66015625 -4.375 C-20.39427003 -7.70672778 -9.25885391 -5.00331607 0 0 Z " fill="#FEBA0C" transform="translate(201.66015625,110.4375)"/>
<path d="M0 0 C0.33 0 0.66 0 1 0 C1 11.55 1 23.1 1 35 C-9.89 35 -20.78 35 -32 35 C-29.24267086 33.62133543 -26.58659594 32.41320841 -23.75 31.25 C-12.09845366 26.02689302 -6.25082016 18.02430093 -1.76171875 6.26171875 C-1.0633493 4.18809869 -0.49248899 2.13086821 0 0 Z " fill="#FFFFFF" transform="translate(511,477)"/>
<path d="M0 0 C1.37866457 2.75732914 2.58679159 5.41340406 3.75 8.25 C8.5290703 18.91100297 15.51457056 24.92446715 26.3125 29.25 C27.11300781 29.54390625 27.91351562 29.8378125 28.73828125 30.140625 C31 31 31 31 35 33 C23.45 33 11.9 33 0 33 C0 22.11 0 11.22 0 0 Z " fill="#FFFFFF" transform="translate(0,479)"/>
<path d="M0 0 C11.55 0 23.1 0 35 0 C35 10.89 35 21.78 35 33 C33.62133543 30.24267086 32.41320841 27.58659594 31.25 24.75 C26.4709297 14.08899703 19.48542944 8.07553285 8.6875 3.75 C7.88699219 3.45609375 7.08648437 3.1621875 6.26171875 2.859375 C4 2 4 2 0 0 Z " fill="#FFFFFF" transform="translate(477,0)"/>
<path d="M0 0 C10.89 0 21.78 0 33 0 C30.24267086 1.37866457 27.58659594 2.58679159 24.75 3.75 C14.08899703 8.5290703 8.07553285 15.51457056 3.75 26.3125 C3.45609375 27.11300781 3.1621875 27.91351562 2.859375 28.73828125 C2 31 2 31 0 35 C0 23.45 0 11.9 0 0 Z " fill="#FFFFFF" transform="translate(0,0)"/>
</svg>
